Coordinates
version=1
nRows=16
nColumns=36
inDegrees=yes

Units are S.I. units (second, meters, Newtons, ...)
If the header above contains a line with 'inDegrees', this indicates whether rotational values are in degrees (yes) or radians (no).

endheader
time	pelvis_tilt	pelvis_list	pelvis_rotation	pelvis_tx	pelvis_ty	pelvis_tz	hip_flexion_r	hip_adduction_r	hip_rotation_r	knee_angle_r	knee_angle_r_beta	ankle_angle_r	subtalar_angle_r	mtp_angle_r	hip_flexion_l	hip_adduction_l	hip_rotation_l	knee_angle_l	knee_angle_l_beta	ankle_angle_l	subtalar_angle_l	mtp_angle_l	lumbar_extension	lumbar_bending	lumbar_rotation	arm_flex_r	arm_add_r	arm_rot_r	elbow_flex_r	pro_sup_r	arm_flex_l	arm_add_l	arm_rot_l	elbow_flex_l	pro_sup_l
      0.00000000	      4.48062694	      1.45232398	      0.05334337	     -0.98141379	      1.31781087	     -0.08684034	     -5.46133298	     -3.49997239	      5.85824602	      2.80899492	      0.04902621	      8.62718303	     -8.83212620	     -5.91552128	     -4.56217337	     -1.18040589	      2.86657628	      3.27985704	      0.05724430	      8.63687132	     -6.62668943	     -5.91552128	    -17.55368046	     -0.29155397	      0.47408284	     10.21965461	     -5.92532190	     25.88034351	     25.06964584	     71.91317456	      8.77839014	     -6.27474490	     25.95312612	     27.58044312	     66.66655467
      0.00416670	      5.25189290	      1.43255524	     -0.28966887	     -0.98123893	      1.32013053	     -0.08619293	     -6.67741257	     -3.29344261	      7.53206774	      1.89815292	      0.03312902	     10.27871860	     -8.50872181	     -6.06105595	     -5.82205205	     -0.95548784	      4.45762804	      2.65887821	      0.04640618	      8.08210464	     -8.09917032	     -6.06105595	    -18.09080346	     -0.35790241	      0.98121499	     10.50783088	     -5.78426029	     25.27410931	     24.75381931	     71.52617044	      9.08006328	     -5.83249351	     25.38461708	     27.71910277	     66.45194465
      0.00833330	      4.64302680	      1.47985468	     -0.89228008	     -0.98042076	      1.31881278	     -0.08440942	     -6.24605616	     -3.27795616	      7.95879466	      1.36745039	      0.02386651	      9.72565100	     -9.72049906	     -6.66678464	     -5.38373660	     -0.96009683	      4.84930942	      2.49568151	      0.04355786	      7.72664346	     -8.90140119	     -6.66678464	    -17.84314312	     -0.79972387	      1.82536500	      9.85327261	     -4.92331147	     18.68412905	     25.55860459	     81.74208435	      9.24496836	     -5.52382933	     22.83421409	     27.70348626	     73.81158385
      0.01250000	      5.52988793	      1.37287249	     -1.15317922	     -0.98001776	      1.32047143	     -0.08526293	     -7.18419421	     -3.20625909	      8.60482386	      1.06087622	      0.01851578	      9.65917617	     -9.68372124	     -7.02520588	     -6.78385095	     -1.05197597	      5.25826205	      1.74671535	      0.03048593	      7.74932943	     -9.46282217	     -7.02520588	    -19.13360410	     -0.84910673	      2.18888510	      9.72169477	     -4.39056875	     15.07916856	     25.99267838	     86.44635335	      9.43715819	     -5.19801998	     20.59251093	     27.64428000	     77.69978174
      0.01666670	      5.71106630	      1.29975836	     -1.31793487	     -0.98111206	      1.31873842	     -0.08417138	     -7.37891613	     -3.15543123	      9.10944534	      0.92419595	      0.01613026	      9.61919567	     -9.66471024	     -7.37248062	     -7.14048412	     -1.13440294	      5.73985178	      1.45722968	      0.02543346	      7.74466137	    -10.14095991	     -7.37248062	    -19.49432201	     -0.85876062	      2.44698187	      9.51208802	     -4.13059120	     13.21793881	     26.60569171	     88.96044249	      9.41261819	     -5.01711155	     19.23504641	     27.89771916	     80.56005134
      0.02083330	      5.68141013	      1.27466934	     -1.46788144	     -0.98062160	      1.32623805	     -0.08156207	     -7.43751597	     -3.13206939	      9.34578972	      0.87632043	      0.01529468	      9.40779926	     -9.49696933	     -7.37286414	     -7.16376668	     -1.18911922	      5.87631540	      1.37799252	      0.02405051	      7.69681525	    -10.10719716	     -7.37286414	    -19.51917118	     -0.86729049	      2.57410622	      9.51008364	     -3.97036697	     13.24670072	     26.64551648	     88.97007955	      9.38386682	     -5.03704205	     19.20893559	     27.88086383	     80.57751919
      0.02500000	      6.06450289	      1.22273519	     -1.72379043	     -0.98004899	      1.32240072	     -0.08282914	     -7.83731512	     -3.11253593	     10.09016929	      0.81183098	      0.01416912	      8.89867681	    -10.13573880	     -7.40809383	     -7.70942960	     -1.21389179	      5.85858920	      1.22514836	      0.02138287	      7.61903650	    -10.60762506	     -7.40809383	    -19.96291675	     -0.84934026	      2.95374689	      9.46191901	     -4.11588151	     13.64555887	     26.93764433	     90.66445892	      9.37321838	     -4.87378548	     18.17623401	     28.04684333	     85.11962620
      0.02916670	      6.17915477	      1.19043966	     -1.71858771	     -0.97998016	      1.32243130	     -0.08319825	     -8.01739912	     -3.10050996	     10.23369452	      0.75473917	      0.01317268	      8.74013356	    -10.02141884	     -7.47897348	     -7.87504587	     -1.21502562	      6.16220806	      1.18433113	      0.02067048	      7.62956438	    -11.01523795	     -7.47897348	    -20.04890728	     -0.77426691	      3.01190696	      9.43839811	     -4.27889176	     14.38202651	     27.12325694	     90.95693964	      9.34784173	     -4.76456258	     17.78005214	     28.15769906	     88.05946646
      0.03333330	      6.16856875	      1.15785790	     -1.75040252	     -0.98070270	      1.32215704	     -0.08272446	     -7.99300338	     -3.08036409	     10.55216369	      0.75318233	      0.01314551	      8.55118424	    -10.22098507	     -7.49347740	     -7.88509489	     -1.22164079	      6.30100299	      1.15824488	      0.02021519	      7.61485472	    -11.36778950	     -7.49347740	    -19.98767713	     -0.69885600	      3.05927982	      9.44436310	     -4.44086160	     15.20629979	     27.19379753	     91.34435234	      9.30976249	     -4.72546628	     17.75356384	     28.29597783	     89.37040490
      0.03750000	      6.28617870	      1.16102485	     -1.84818288	     -0.98090427	      1.32314004	     -0.08221810	     -8.12730991	     -3.13193579	     10.66858604	      0.76565045	      0.01336312	      8.27728440	    -10.50198034	     -7.49770897	     -8.02971086	     -1.18306143	      6.46256183	      1.16198808	      0.02028052	      7.29226144	    -11.65536869	     -7.49770897	    -20.14206407	     -0.71410729	      3.16311668	      9.56098736	     -4.64525567	     16.38624525	     27.22492966	     91.17091534	      9.44517565	     -4.78938979	     18.34650296	     28.25982554	     89.82052738
      0.04166670	      6.32878852	      1.16946163	     -1.91603747	     -0.98280841	      1.32218006	     -0.08263516	     -8.12251610	     -3.17313549	     10.82062266	      0.79333832	      0.01384637	      8.05116637	    -10.89003147	     -7.49949617	     -8.02400336	     -1.14717656	      6.60589503	      1.21398444	      0.02118803	      7.04917548	    -11.90858513	     -7.49949617	    -20.30454603	     -0.72881057	      3.22305645	      9.57351847	     -4.74414245	     16.41074116	     27.50602187	     92.11164815	      9.49141804	     -4.76770420	     18.00965825	     28.43636034	     91.29467195
      0.04583330	      6.59741296	      1.15824002	     -1.81309312	     -0.98212088	      1.31984660	     -0.08312091	     -8.39531389	     -3.17212959	     10.73988835	      0.80385376	      0.01402989	      7.99987765	    -11.09783760	     -7.49973543	     -8.25497855	     -1.15151813	      7.01456480	      1.26844062	      0.02213847	      6.76450161	    -12.37286800	     -7.49973543	    -20.63771469	     -0.64061547	      3.13190169	      9.72205239	     -5.03779934	     18.41239397	     27.67718420	     85.32097272	      9.66014433	     -4.91766553	     19.75687831	     28.52708543	     84.57163372
      0.05000000	      6.54359165	      1.14139665	     -1.89344252	     -0.98082218	      1.32627132	     -0.08143710	     -8.29543448	     -3.12551592	     10.72874222	      0.83794460	      0.01462489	      7.97168034	    -11.10667322	     -7.49973585	     -8.18094347	     -1.20334761	      7.00452057	      1.32465254	      0.02311955	      6.69840175	    -12.34283020	     -7.49973585	    -20.69072043	     -0.68724787	      3.14657740	      9.70495702	     -5.03069650	     18.42120485	     27.68382426	     85.34160845	      9.64400389	     -4.95530353	     19.75485953	     28.51142748	     84.58935065
      0.05416670	      6.55021304	      1.08244029	     -1.99600161	     -0.97955305	      1.32058279	     -0.08139755	     -8.32464646	     -3.04498704	     11.17795863	      0.81596848	      0.01424134	      7.41703998	    -11.95963714	     -7.49980599	     -8.27028935	     -1.28400530	      6.99213605	      1.29474494	      0.02259756	      6.34370101	    -12.73064958	     -7.49980599	    -20.53403449	     -0.68989624	      3.34231596	      9.47007106	     -4.95177934	     16.81876042	     27.79292736	     93.91988041	      9.54329082	     -4.84799303	     18.25199950	     28.33581701	     92.93400321
      0.05833330	      6.57818280	      1.04906070	     -2.02017242	     -0.97885155	      1.31898289	     -0.08268685	     -8.35556925	     -2.98930169	     11.32842389	      0.83424529	      0.01456033	      7.23326621	    -12.38397291	     -7.49992988	     -8.37493686	     -1.31702931	      7.12703124	      1.27582681	      0.02226738	      6.31647930	    -13.06324374	     -7.49992988	    -20.48730842	     -0.62262036	      3.43654616	      9.36340097	     -5.05715543	     16.82824372	     27.87855588	     94.38760991	      9.50107308	     -4.84162629	     18.44559312	     28.24375869	     93.26717183
      0.06250000	      6.66293123	      1.01427429	     -2.12415385	     -0.97715833	      1.31878583	     -0.08169490	     -8.47589599	     -2.94436879	     11.63846397	      0.81385653	      0.01420448	      7.08734697	    -12.73044796	     -7.49997982	     -8.58219805	     -1.35442347	      7.11258685	      1.24938856	      0.02180594	      6.50471509	    -13.11177139	     -7.49997982	    -20.40083669	     -0.60227710	      3.57128399	      9.20337955	     -5.08713883	     16.75017710	     27.88946306	     94.62371035	      9.37396885	     -4.83496730	     18.56544520	     28.11589011	     93.30946601
